<svg width="380" height="388" viewBox="0 0 380 388" fill="none" xmlns="http://www.w3.org/2000/svg">
<path d="M364.167 8H15.8333C11.6341 8 7.60681 9.8198 4.63748 13.0591C1.66815 16.2983 0 20.6917 0 25.2727V353.455C0 362.617 3.3363 371.403 9.27495 377.882C15.2136 384.36 23.2681 388 31.6667 388H110.833C119.232 388 127.286 384.36 133.225 377.882C139.164 371.403 142.5 362.617 142.5 353.455V249.818H237.5V284.364C237.5 293.526 240.836 302.312 246.775 308.791C252.714 315.269 260.768 318.909 269.167 318.909H348.333C356.732 318.909 364.786 315.269 370.725 308.791C376.664 302.312 380 293.526 380 284.364V25.2727C380 20.6917 378.332 16.2983 375.363 13.0591C372.393 9.8198 368.366 8 364.167 8ZM110.833 353.455H31.6667V180.727H110.833V353.455ZM110.833 146.182H31.6667V42.5455H110.833V94.3636V146.182ZM237.5 215.273H142.5V42.5455H237.5V215.273ZM348.333 284.364H269.167V180.727H348.333V284.364ZM348.333 146.182H269.167V42.5455H348.333V146.182Z" fill="white"/>
</svg>
